<?xml version="1.0" encoding="UTF-8" standalone="no"?>
<svg
   xmlns:dc="http://purl.org/dc/elements/1.1/"
   xmlns:cc="http://creativecommons.org/ns#"
   xmlns:rdf="http://www.w3.org/1999/02/22-rdf-syntax-ns#"
   xmlns:svg="http://www.w3.org/2000/svg"
   xmlns="http://www.w3.org/2000/svg"
   xmlns:sodipodi="http://sodipodi.sourceforge.net/DTD/sodipodi-0.dtd"
   xmlns:inkscape="http://www.inkscape.org/namespaces/inkscape"
   width="61pt"
   height="54pt"
   viewBox="0 0 61 54"
   version="1.1"
   id="svg2"
   inkscape:version="0.48.5 r10040"
   sodipodi:docname="firefox-eps-converted-to.svg">
  <metadata
     id="metadata16">
    <rdf:RDF>
      <cc:Work
         rdf:about="">
        <dc:format>image/svg+xml</dc:format>
        <dc:type
           rdf:resource="http://purl.org/dc/dcmitype/StillImage" />
      </cc:Work>
    </rdf:RDF>
  </metadata>
  <sodipodi:namedview
     pagecolor="#ffffff"
     bordercolor="#666666"
     borderopacity="1"
     objecttolerance="10"
     gridtolerance="10"
     guidetolerance="10"
     inkscape:pageopacity="0"
     inkscape:pageshadow="2"
     inkscape:window-width="974"
     inkscape:window-height="783"
     id="namedview14"
     showgrid="false"
     inkscape:zoom="3.4962963"
     inkscape:cx="-20.222458"
     inkscape:cy="33.75"
     inkscape:window-x="239"
     inkscape:window-y="190"
     inkscape:window-maximized="0"
     inkscape:current-layer="svg2" />
  <defs
     id="defs4">
    <clipPath
       id="clip1">
      <path
         d="M 0 0.589844 L 60 0.589844 L 60 54 L 0 54 Z "
         id="path7" />
    </clipPath>
  </defs>
  <g
     id="surface1"
     style="fill:#c64827;fill-opacity:1">
    <g
       clip-path="url(#clip1)"
       clip-rule="nonzero"
       id="g10"
       style="fill:#c64827;fill-opacity:1">
      <path
         style="stroke:none;fill-rule:nonzero;fill:#c64827;fill-opacity:1"
         d="M 60 18.609375 C 60 19.351562 59.941406 20.796875 59.824219 22.945312 C 59.707031 25.09375 59.453125 27.203125 59.0625 29.273438 C 58.671875 31.34375 57.949219 33.667969 56.894531 36.246094 C 55.839844 38.824219 54.550781 41.148438 53.027344 43.21875 C 51.503906 45.289062 49.414062 47.242188 46.757812 49.078125 C 44.101562 50.914062 41.09375 52.222656 37.734375 53.003906 C 35.9375 53.472656 34.101562 53.746094 32.226562 53.824219 C 32.148438 53.824219 31.992188 53.863281 31.757812 53.941406 C 30.195312 54.019531 28.632812 54.019531 27.070312 53.941406 C 17.382812 53.160156 10 48.394531 4.921875 39.644531 C 2.578125 35.503906 1.25 31.558594 0.9375 27.808594 C 0.703125 28.902344 0.546875 29.839844 0.46875 30.621094 C 0.234375 26.167969 0.585938 22.535156 1.523438 19.722656 C 0.820312 20.894531 0.3125 21.988281 0 23.003906 C 0.625 19.488281 1.445312 16.714844 2.460938 14.683594 C 2.539062 14.214844 3.007812 13.355469 3.867188 12.105469 C 3.867188 11.949219 3.867188 11.832031 3.867188 11.753906 C 3.710938 9.566406 3.925781 7.59375 4.511719 5.835938 C 5.097656 4.078125 5.585938 2.984375 5.976562 2.554688 C 6.367188 2.125 6.679688 1.792969 6.914062 1.558594 C 6.992188 3.433594 7.96875 5.230469 9.84375 6.949219 C 10.3125 7.027344 10.742188 7.066406 11.132812 7.066406 C 13.085938 6.675781 15.117188 6.714844 17.226562 7.183594 C 18.476562 5.621094 20.390625 4.566406 22.96875 4.019531 L 25.195312 3.902344 C 22.929688 5.230469 21.5625 7.144531 21.09375 9.644531 C 21.953125 11.441406 23.085938 12.339844 24.492188 12.339844 C 25.664062 12.339844 26.523438 12.339844 27.070312 12.339844 C 28.398438 12.339844 29.101562 12.457031 29.179688 12.691406 L 29.179688 12.925781 C 29.257812 13.003906 29.257812 13.121094 29.179688 13.277344 L 29.179688 13.511719 C 29.101562 14.292969 28.828125 14.878906 28.359375 15.269531 C 28.28125 15.269531 28.242188 15.289062 28.242188 15.328125 C 28.242188 15.367188 28.203125 15.386719 28.125 15.386719 C 28.125 15.464844 27.773438 15.699219 27.070312 16.089844 C 26.132812 16.714844 25.390625 17.222656 24.84375 17.613281 C 23.828125 18.238281 23.320312 18.667969 23.320312 18.902344 L 23.320312 19.019531 L 23.203125 19.019531 C 23.4375 19.488281 23.59375 20.074219 23.671875 20.777344 C 23.828125 21.480469 23.867188 21.910156 23.789062 22.066406 C 23.789062 22.457031 23.789062 22.808594 23.789062 23.121094 C 22.851562 22.652344 21.953125 22.339844 21.09375 22.183594 C 20 22.652344 19.375 23.160156 19.21875 23.707031 C 19.140625 24.019531 19.0625 24.332031 18.984375 24.644531 C 18.984375 26.128906 20.039062 27.496094 22.148438 28.746094 C 23.007812 29.292969 23.886719 29.605469 24.785156 29.683594 C 25.683594 29.761719 26.386719 29.722656 26.894531 29.566406 C 27.402344 29.410156 28.027344 29.175781 28.769531 28.863281 C 29.511719 28.550781 30.039062 28.355469 30.351562 28.277344 C 32.695312 27.652344 34.609375 28.199219 36.09375 29.917969 C 36.5625 30.386719 36.660156 30.835938 36.386719 31.265625 C 36.113281 31.695312 35.703125 31.832031 35.15625 31.675781 C 34.921875 31.753906 34.765625 31.773438 34.6875 31.734375 C 34.609375 31.695312 34.433594 31.734375 34.160156 31.851562 C 33.886719 31.96875 33.691406 32.046875 33.574219 32.085938 C 33.457031 32.125 33.261719 32.242188 32.988281 32.4375 C 32.714844 32.632812 32.5 32.769531 32.34375 32.847656 C 32.1875 32.925781 31.933594 33.101562 31.582031 33.375 C 31.230469 33.648438 30.9375 33.824219 30.703125 33.902344 C 29.765625 34.605469 28.417969 35.113281 26.660156 35.425781 C 24.902344 35.738281 23.4375 35.738281 22.265625 35.425781 C 23.203125 36.128906 23.945312 36.636719 24.492188 36.949219 C 25.039062 37.261719 25.9375 37.75 27.1875 38.414062 C 28.4375 39.078125 29.511719 39.507812 30.410156 39.703125 C 31.308594 39.898438 32.441406 39.996094 33.808594 39.996094 C 35.175781 39.996094 36.425781 39.761719 37.558594 39.292969 C 38.691406 38.824219 39.902344 38.023438 41.191406 36.890625 C 42.480469 35.757812 43.710938 34.332031 44.882812 32.613281 C 45.117188 32.222656 45.273438 31.988281 45.351562 31.910156 C 45.507812 31.910156 45.3125 32.964844 44.765625 35.074219 C 44.53125 36.167969 44.453125 36.714844 44.53125 36.714844 C 45.859375 35.777344 46.777344 33.980469 47.285156 31.324219 C 47.792969 28.667969 47.851562 26.089844 47.460938 23.589844 C 48.398438 23.980469 49.0625 24.722656 49.453125 25.816406 L 49.6875 26.050781 C 50.15625 24.566406 50.429688 22.632812 50.507812 20.25 C 50.585938 17.867188 50.351562 15.894531 49.804688 14.332031 C 50.820312 14.644531 51.757812 15.660156 52.617188 17.378906 C 52.382812 16.128906 52.03125 14.976562 51.5625 13.921875 C 51.09375 12.867188 50.566406 11.96875 49.980469 11.226562 C 49.394531 10.484375 48.769531 9.78125 48.105469 9.117188 C 47.441406 8.453125 46.757812 7.90625 46.054688 7.476562 C 45.351562 7.046875 44.667969 6.65625 44.003906 6.304688 C 43.339844 5.953125 42.714844 5.679688 42.128906 5.484375 C 41.542969 5.289062 41.015625 5.132812 40.546875 5.015625 C 40.078125 4.898438 39.726562 4.820312 39.492188 4.78125 C 39.257812 4.742188 39.179688 4.722656 39.257812 4.722656 C 41.210938 4.175781 43.203125 3.902344 45.234375 3.902344 C 45 3.511719 44.550781 3.160156 43.886719 2.847656 C 43.222656 2.535156 42.5 2.261719 41.71875 2.027344 C 40.9375 1.792969 40.175781 1.597656 39.433594 1.441406 C 38.691406 1.285156 37.8125 1.089844 36.796875 0.855469 L 36.679688 0.855469 L 36.914062 0.855469 C 39.101562 0.230469 42.539062 0.699219 47.226562 2.261719 C 48.945312 2.808594 50.507812 3.804688 51.914062 5.25 C 53.320312 6.695312 54.199219 7.769531 54.550781 8.472656 C 54.902344 9.175781 55.15625 9.761719 55.3125 10.230469 L 55.3125 9.761719 C 55.390625 9.371094 55.332031 8.765625 55.136719 7.945312 C 54.941406 7.125 54.648438 6.246094 54.257812 5.308594 C 54.335938 5.308594 54.453125 5.367188 54.609375 5.484375 C 54.765625 5.601562 55.058594 6.03125 55.488281 6.773438 C 55.917969 7.515625 56.40625 8.589844 56.953125 9.996094 C 57.8125 12.105469 58.554688 15.894531 59.179688 21.363281 L 59.882812 16.910156 C 59.960938 17.300781 60 17.867188 60 18.609375 "
         id="path12" />
    </g>
  </g>
</svg>
