<?xml version="1.0" encoding="UTF-8" standalone="no"?>
<svg
   xmlns:dc="http://purl.org/dc/elements/1.1/"
   xmlns:cc="http://creativecommons.org/ns#"
   xmlns:rdf="http://www.w3.org/1999/02/22-rdf-syntax-ns#"
   xmlns:svg="http://www.w3.org/2000/svg"
   xmlns="http://www.w3.org/2000/svg"
   xmlns:sodipodi="http://sodipodi.sourceforge.net/DTD/sodipodi-0.dtd"
   xmlns:inkscape="http://www.inkscape.org/namespaces/inkscape"
   width="57pt"
   height="56pt"
   viewBox="0 0 57 56"
   version="1.1"
   id="svg2993"
   inkscape:version="0.48.5 r10040"
   sodipodi:docname="ie-eps-converted-to.svg">
  <metadata
     id="metadata3007">
    <rdf:RDF>
      <cc:Work
         rdf:about="">
        <dc:format>image/svg+xml</dc:format>
        <dc:type
           rdf:resource="http://purl.org/dc/dcmitype/StillImage" />
      </cc:Work>
    </rdf:RDF>
  </metadata>
  <sodipodi:namedview
     pagecolor="#ffffff"
     bordercolor="#666666"
     borderopacity="1"
     objecttolerance="10"
     gridtolerance="10"
     guidetolerance="10"
     inkscape:pageopacity="0"
     inkscape:pageshadow="2"
     inkscape:window-width="768"
     inkscape:window-height="480"
     id="namedview3005"
     showgrid="false"
     inkscape:zoom="3.3714286"
     inkscape:cx="35.625"
     inkscape:cy="35"
     inkscape:window-x="744"
     inkscape:window-y="344"
     inkscape:window-maximized="0"
     inkscape:current-layer="svg2993" />
  <defs
     id="defs2995">
    <clipPath
       id="clip1">
      <path
         d="M 0 0.777344 L 56.953125 0.777344 L 56.953125 56 L 0 56 Z "
         id="path2998" />
    </clipPath>
  </defs>
  <g
     id="surface1"
     style="fill:#00599e;fill-opacity:1">
    <g
       clip-path="url(#clip1)"
       clip-rule="nonzero"
       id="g3001"
       style="fill:#00599e;fill-opacity:1">
      <path
         style="stroke:none;fill-rule:nonzero;fill:#00599e;fill-opacity:1"
         d="M 40.78125 5.867188 C 45.78125 7.898438 49.765625 11.179688 52.734375 15.710938 C 54.53125 10.867188 54.453125 7.46875 52.5 5.515625 C 50.390625 3.328125 46.484375 3.445312 40.78125 5.867188 Z M 42.070312 25.90625 C 41.914062 23.09375 40.78125 20.691406 38.671875 18.699219 C 36.5625 16.707031 34.082031 15.710938 31.230469 15.710938 C 28.378906 15.710938 25.898438 16.707031 23.789062 18.699219 C 21.679688 20.691406 20.546875 23.09375 20.390625 25.90625 Z M 17.929688 51.921875 C 12.695312 48.71875 9.023438 44.226562 6.914062 38.445312 C 3.398438 45.320312 2.929688 50.046875 5.507812 52.625 C 7.773438 54.886719 11.914062 54.65625 17.929688 51.921875 Z M 20.390625 32.703125 L 20.390625 32.820312 C 20.390625 34.695312 20.820312 36.492188 21.679688 38.210938 C 22.695312 40.007812 24.082031 41.429688 25.839844 42.484375 C 27.597656 43.539062 29.550781 44.070312 31.699219 44.070312 C 33.847656 44.070312 35.800781 43.539062 37.558594 42.484375 C 39.316406 41.429688 40.703125 40.007812 41.71875 38.210938 L 55.664062 38.210938 C 53.867188 43.289062 50.742188 47.449219 46.289062 50.6875 C 41.835938 53.929688 36.835938 55.550781 31.289062 55.550781 C 27.148438 55.550781 23.242188 54.65625 19.570312 52.855469 C 11.367188 56.84375 5.46875 57.035156 1.875 53.445312 C 0.625 52.273438 0 50.320312 0 47.585938 C 0 44.851562 0.527344 41.804688 1.582031 38.445312 C 2.636719 35.085938 4.394531 31.394531 6.855469 27.371094 C 9.316406 23.347656 12.226562 19.695312 15.585938 16.414062 C 17.539062 14.382812 18.789062 13.132812 19.335938 12.664062 C 14.492188 15.007812 10.117188 18.640625 6.210938 23.5625 C 7.617188 17.859375 10.644531 13.171875 15.292969 9.5 C 19.941406 5.828125 25.273438 3.992188 31.289062 3.992188 C 31.914062 3.992188 32.539062 4.03125 33.164062 4.109375 C 37.539062 2.15625 41.523438 1.0625 45.117188 0.828125 C 48.710938 0.59375 51.25 1.179688 52.734375 2.585938 C 55.703125 5.632812 55.976562 10.398438 53.554688 16.882812 C 55.820312 20.867188 56.953125 25.164062 56.953125 29.773438 C 56.953125 30.867188 56.914062 31.84375 56.835938 32.703125 L 20.390625 32.703125 "
         id="path3003" />
    </g>
  </g>
</svg>
