<?xml version="1.0" encoding="UTF-8" standalone="no"?>
<svg
   xmlns:dc="http://purl.org/dc/elements/1.1/"
   xmlns:cc="http://creativecommons.org/ns#"
   xmlns:rdf="http://www.w3.org/1999/02/22-rdf-syntax-ns#"
   xmlns:svg="http://www.w3.org/2000/svg"
   xmlns="http://www.w3.org/2000/svg"
   xmlns:sodipodi="http://sodipodi.sourceforge.net/DTD/sodipodi-0.dtd"
   xmlns:inkscape="http://www.inkscape.org/namespaces/inkscape"
   width="57pt"
   height="60pt"
   viewBox="0 0 57 60"
   version="1.1"
   id="svg3025"
   inkscape:version="0.48.5 r10040"
   sodipodi:docname="safari-eps-converted-to.svg">
  <metadata
     id="metadata3039">
    <rdf:RDF>
      <cc:Work
         rdf:about="">
        <dc:format>image/svg+xml</dc:format>
        <dc:type
           rdf:resource="http://purl.org/dc/dcmitype/StillImage" />
      </cc:Work>
    </rdf:RDF>
  </metadata>
  <sodipodi:namedview
     pagecolor="#ffffff"
     bordercolor="#666666"
     borderopacity="1"
     objecttolerance="10"
     gridtolerance="10"
     guidetolerance="10"
     inkscape:pageopacity="0"
     inkscape:pageshadow="2"
     inkscape:window-width="768"
     inkscape:window-height="480"
     id="namedview3037"
     showgrid="false"
     inkscape:zoom="3.1466667"
     inkscape:cx="35.625"
     inkscape:cy="37.5"
     inkscape:window-x="990"
     inkscape:window-y="318"
     inkscape:window-maximized="0"
     inkscape:current-layer="svg3025" />
  <defs
     id="defs3027">
    <clipPath
       id="clip1">
      <path
         d="M 0 0 L 56.25 0 L 56.25 60 L 0 60 Z "
         id="path3030" />
    </clipPath>
  </defs>
  <g
     id="surface1"
     style="fill:#6295cc;fill-opacity:1">
    <g
       clip-path="url(#clip1)"
       clip-rule="nonzero"
       id="g3033"
       style="fill:#6295cc;fill-opacity:1">
      <path
         style="stroke:none;fill-rule:nonzero;fill:#6295cc;fill-opacity:1"
         d="M 33.28125 34.101562 C 33.75 33.007812 33.867188 31.875 33.632812 30.703125 C 33.554688 30.390625 33.4375 30.039062 33.28125 29.648438 L 30.117188 33.867188 L 25.898438 37.03125 C 26.367188 37.265625 26.875 37.421875 27.421875 37.5 C 27.65625 37.5 27.890625 37.5 28.125 37.5 C 28.515625 37.5 28.90625 37.460938 29.296875 37.382812 C 29.921875 37.226562 30.507812 36.992188 31.054688 36.679688 C 32.070312 36.054688 32.8125 35.195312 33.28125 34.101562 Z M 23.4375 28.828125 C 22.578125 30.15625 22.304688 31.5625 22.617188 33.046875 C 22.695312 33.359375 22.808594 33.710938 22.96875 34.101562 L 26.132812 29.882812 L 30.351562 26.71875 C 29.882812 26.484375 29.371094 26.328125 28.828125 26.25 C 28.59375 26.25 28.359375 26.25 28.125 26.25 C 27.730469 26.25 27.34375 26.289062 26.953125 26.367188 C 25.46875 26.679688 24.296875 27.5 23.4375 28.828125 Z M 20.625 3.75 C 20.933594 3.28125 21.34375 2.988281 21.855469 2.871094 C 22.363281 2.753906 22.851562 2.851562 23.320312 3.164062 C 23.863281 2.773438 24.097656 2.34375 24.023438 1.875 C 23.863281 1.25 23.242188 0.9375 22.148438 0.9375 C 21.914062 0.9375 21.679688 0.976562 21.445312 1.054688 C 20.820312 1.132812 20.3125 1.367188 19.921875 1.757812 C 19.53125 2.148438 19.375 2.5 19.453125 2.8125 C 19.609375 3.28125 19.996094 3.59375 20.625 3.75 Z M 33.984375 28.828125 L 33.984375 28.945312 L 41.015625 29.179688 L 34.6875 32.109375 C 34.6875 32.96875 34.492188 33.828125 34.101562 34.6875 L 36.796875 37.5 L 33.046875 36.210938 C 32.5 36.835938 31.835938 37.34375 31.054688 37.734375 L 30.820312 44.765625 L 27.890625 38.4375 C 26.875 38.359375 25.9375 38.125 25.078125 37.734375 L 13.59375 46.40625 L 22.265625 34.921875 L 22.265625 34.804688 L 15.234375 34.570312 L 21.5625 31.640625 C 21.5625 30.78125 21.757812 29.921875 22.148438 29.0625 L 19.453125 26.25 L 23.203125 27.539062 C 23.746094 26.914062 24.414062 26.40625 25.195312 26.015625 L 25.429688 18.984375 L 28.359375 25.3125 C 29.371094 25.390625 30.308594 25.625 31.171875 26.015625 L 42.65625 17.34375 Z M 49.453125 31.875 C 49.453125 30.9375 49.375 30 49.21875 29.0625 L 44.53125 28.359375 L 48.632812 25.898438 C 47.617188 22.382812 45.820312 19.335938 43.242188 16.757812 C 39.023438 12.617188 33.984375 10.546875 28.125 10.546875 C 27.1875 10.546875 26.25 10.625 25.3125 10.78125 L 24.609375 15.46875 L 22.148438 11.367188 C 18.632812 12.382812 15.585938 14.179688 13.007812 16.757812 C 8.863281 20.976562 6.796875 26.015625 6.796875 31.875 C 6.796875 32.8125 6.875 33.75 7.03125 34.6875 L 11.71875 35.390625 L 7.617188 37.851562 C 8.632812 41.367188 10.429688 44.414062 13.007812 46.992188 C 17.226562 51.132812 22.265625 53.203125 28.125 53.203125 C 29.0625 53.203125 30 53.125 30.9375 52.96875 L 31.640625 48.28125 L 34.101562 52.382812 C 37.617188 51.367188 40.664062 49.570312 43.242188 46.992188 C 47.382812 42.773438 49.453125 37.734375 49.453125 31.875 Z M 47.988281 12.011719 C 53.496094 17.519531 56.25 24.140625 56.25 31.875 C 56.25 39.609375 53.496094 46.230469 47.988281 51.738281 C 42.480469 57.246094 35.859375 60 28.125 60 C 20.390625 60 13.769531 57.246094 8.261719 51.738281 C 2.753906 46.230469 0 39.609375 0 31.875 C 0 25.546875 1.914062 19.882812 5.742188 14.882812 C 9.570312 9.882812 14.453125 6.523438 20.390625 4.804688 L 20.390625 4.6875 C 19.375 4.453125 18.789062 3.90625 18.632812 3.046875 C 18.472656 2.421875 18.652344 1.816406 19.160156 1.230469 C 19.667969 0.644531 20.347656 0.273438 21.210938 0.117188 C 21.523438 0.0390625 21.835938 0 22.148438 0 C 23.710938 0 24.609375 0.585938 24.84375 1.757812 C 25.078125 2.539062 24.765625 3.242188 23.90625 3.867188 C 23.90625 3.945312 23.945312 4.023438 24.023438 4.101562 C 25.351562 3.867188 26.71875 3.75 28.125 3.75 C 35.859375 3.75 42.480469 6.503906 47.988281 12.011719 "
         id="path3035" />
    </g>
  </g>
</svg>
